<mxfile host="app.diagrams.net" modified="2024-07-21T18:01:33.376Z" agent="Mozilla/5.0 (Macintosh; Intel Mac OS X 10_15_7) AppleWebKit/537.36 (KHTML, like Gecko) Chrome/126.0.0.0 Safari/537.36" etag="MIMC-7gDe69GEtZMYGSy" version="24.7.1" type="github">
  <diagram id="C5RBs43oDa-KdzZeNtuy" name="Page-1">
    <mxGraphModel dx="2180" dy="900" grid="1" gridSize="10" guides="1" tooltips="1" connect="1" arrows="1" fold="1" page="1" pageScale="1" pageWidth="827" pageHeight="1169" math="0" shadow="0">
      <root>
        <mxCell id="WIyWlLk6GJQsqaUBKTNV-0" />
        <mxCell id="WIyWlLk6GJQsqaUBKTNV-1" parent="WIyWlLk6GJQsqaUBKTNV-0" />
        <mxCell id="6IBB-R6YREifQgIwVvRb-8" value="" style="edgeStyle=orthogonalEdgeStyle;rounded=0;orthogonalLoop=1;jettySize=auto;html=1;" edge="1" parent="WIyWlLk6GJQsqaUBKTNV-1" source="6IBB-R6YREifQgIwVvRb-6" target="6IBB-R6YREifQgIwVvRb-7">
          <mxGeometry relative="1" as="geometry" />
        </mxCell>
        <mxCell id="6IBB-R6YREifQgIwVvRb-6" value="&lt;div&gt;开始&lt;/div&gt;" style="ellipse;whiteSpace=wrap;html=1;" vertex="1" parent="WIyWlLk6GJQsqaUBKTNV-1">
          <mxGeometry x="30" y="120" width="120" height="80" as="geometry" />
        </mxCell>
        <mxCell id="6IBB-R6YREifQgIwVvRb-10" value="" style="edgeStyle=orthogonalEdgeStyle;rounded=0;orthogonalLoop=1;jettySize=auto;html=1;" edge="1" parent="WIyWlLk6GJQsqaUBKTNV-1" source="6IBB-R6YREifQgIwVvRb-7" target="6IBB-R6YREifQgIwVvRb-9">
          <mxGeometry relative="1" as="geometry" />
        </mxCell>
        <mxCell id="6IBB-R6YREifQgIwVvRb-7" value="百科1" style="whiteSpace=wrap;html=1;" vertex="1" parent="WIyWlLk6GJQsqaUBKTNV-1">
          <mxGeometry x="250" y="250" width="120" height="60" as="geometry" />
        </mxCell>
        <mxCell id="6IBB-R6YREifQgIwVvRb-14" value="" style="edgeStyle=orthogonalEdgeStyle;rounded=0;orthogonalLoop=1;jettySize=auto;html=1;" edge="1" parent="WIyWlLk6GJQsqaUBKTNV-1" source="6IBB-R6YREifQgIwVvRb-9" target="6IBB-R6YREifQgIwVvRb-13">
          <mxGeometry relative="1" as="geometry" />
        </mxCell>
        <mxCell id="6IBB-R6YREifQgIwVvRb-62" style="edgeStyle=orthogonalEdgeStyle;rounded=0;orthogonalLoop=1;jettySize=auto;html=1;entryX=1;entryY=0.5;entryDx=0;entryDy=0;" edge="1" parent="WIyWlLk6GJQsqaUBKTNV-1" source="6IBB-R6YREifQgIwVvRb-9" target="6IBB-R6YREifQgIwVvRb-43">
          <mxGeometry relative="1" as="geometry" />
        </mxCell>
        <mxCell id="6IBB-R6YREifQgIwVvRb-9" value="问答1" style="whiteSpace=wrap;html=1;" vertex="1" parent="WIyWlLk6GJQsqaUBKTNV-1">
          <mxGeometry x="30" y="350" width="120" height="60" as="geometry" />
        </mxCell>
        <mxCell id="6IBB-R6YREifQgIwVvRb-16" value="" style="edgeStyle=orthogonalEdgeStyle;rounded=0;orthogonalLoop=1;jettySize=auto;html=1;" edge="1" parent="WIyWlLk6GJQsqaUBKTNV-1" source="6IBB-R6YREifQgIwVvRb-13" target="6IBB-R6YREifQgIwVvRb-15">
          <mxGeometry relative="1" as="geometry" />
        </mxCell>
        <mxCell id="6IBB-R6YREifQgIwVvRb-13" value="百科2" style="whiteSpace=wrap;html=1;" vertex="1" parent="WIyWlLk6GJQsqaUBKTNV-1">
          <mxGeometry x="250" y="460" width="120" height="60" as="geometry" />
        </mxCell>
        <mxCell id="6IBB-R6YREifQgIwVvRb-18" value="" style="edgeStyle=orthogonalEdgeStyle;rounded=0;orthogonalLoop=1;jettySize=auto;html=1;entryX=0.5;entryY=0;entryDx=0;entryDy=0;" edge="1" parent="WIyWlLk6GJQsqaUBKTNV-1" source="6IBB-R6YREifQgIwVvRb-15" target="6IBB-R6YREifQgIwVvRb-17">
          <mxGeometry relative="1" as="geometry">
            <Array as="points">
              <mxPoint x="90" y="560" />
              <mxPoint x="320" y="560" />
            </Array>
          </mxGeometry>
        </mxCell>
        <mxCell id="6IBB-R6YREifQgIwVvRb-53" style="edgeStyle=orthogonalEdgeStyle;rounded=0;orthogonalLoop=1;jettySize=auto;html=1;entryX=1;entryY=0.5;entryDx=0;entryDy=0;" edge="1" parent="WIyWlLk6GJQsqaUBKTNV-1" source="6IBB-R6YREifQgIwVvRb-15" target="6IBB-R6YREifQgIwVvRb-43">
          <mxGeometry relative="1" as="geometry" />
        </mxCell>
        <mxCell id="6IBB-R6YREifQgIwVvRb-15" value="问答2" style="whiteSpace=wrap;html=1;" vertex="1" parent="WIyWlLk6GJQsqaUBKTNV-1">
          <mxGeometry x="30" y="460" width="120" height="60" as="geometry" />
        </mxCell>
        <mxCell id="6IBB-R6YREifQgIwVvRb-20" value="" style="edgeStyle=orthogonalEdgeStyle;rounded=0;orthogonalLoop=1;jettySize=auto;html=1;" edge="1" parent="WIyWlLk6GJQsqaUBKTNV-1" source="6IBB-R6YREifQgIwVvRb-17" target="6IBB-R6YREifQgIwVvRb-19">
          <mxGeometry relative="1" as="geometry" />
        </mxCell>
        <mxCell id="6IBB-R6YREifQgIwVvRb-17" value="百科3" style="whiteSpace=wrap;html=1;" vertex="1" parent="WIyWlLk6GJQsqaUBKTNV-1">
          <mxGeometry x="250" y="590" width="120" height="60" as="geometry" />
        </mxCell>
        <mxCell id="6IBB-R6YREifQgIwVvRb-58" style="edgeStyle=orthogonalEdgeStyle;rounded=0;orthogonalLoop=1;jettySize=auto;html=1;entryX=0.5;entryY=0;entryDx=0;entryDy=0;" edge="1" parent="WIyWlLk6GJQsqaUBKTNV-1" source="6IBB-R6YREifQgIwVvRb-19" target="6IBB-R6YREifQgIwVvRb-22">
          <mxGeometry relative="1" as="geometry" />
        </mxCell>
        <mxCell id="6IBB-R6YREifQgIwVvRb-60" style="edgeStyle=orthogonalEdgeStyle;rounded=0;orthogonalLoop=1;jettySize=auto;html=1;entryX=0.5;entryY=1;entryDx=0;entryDy=0;" edge="1" parent="WIyWlLk6GJQsqaUBKTNV-1" source="6IBB-R6YREifQgIwVvRb-19" target="6IBB-R6YREifQgIwVvRb-43">
          <mxGeometry relative="1" as="geometry" />
        </mxCell>
        <mxCell id="6IBB-R6YREifQgIwVvRb-19" value="问答3" style="whiteSpace=wrap;html=1;" vertex="1" parent="WIyWlLk6GJQsqaUBKTNV-1">
          <mxGeometry x="30" y="670" width="120" height="60" as="geometry" />
        </mxCell>
        <mxCell id="6IBB-R6YREifQgIwVvRb-25" value="" style="edgeStyle=orthogonalEdgeStyle;rounded=0;orthogonalLoop=1;jettySize=auto;html=1;" edge="1" parent="WIyWlLk6GJQsqaUBKTNV-1" source="6IBB-R6YREifQgIwVvRb-22" target="6IBB-R6YREifQgIwVvRb-24">
          <mxGeometry relative="1" as="geometry" />
        </mxCell>
        <mxCell id="6IBB-R6YREifQgIwVvRb-22" value="百科4" style="whiteSpace=wrap;html=1;" vertex="1" parent="WIyWlLk6GJQsqaUBKTNV-1">
          <mxGeometry x="250" y="730" width="120" height="60" as="geometry" />
        </mxCell>
        <mxCell id="6IBB-R6YREifQgIwVvRb-27" value="" style="edgeStyle=orthogonalEdgeStyle;rounded=0;orthogonalLoop=1;jettySize=auto;html=1;" edge="1" parent="WIyWlLk6GJQsqaUBKTNV-1" source="6IBB-R6YREifQgIwVvRb-24" target="6IBB-R6YREifQgIwVvRb-28">
          <mxGeometry relative="1" as="geometry">
            <mxPoint x="90" y="870" as="targetPoint" />
          </mxGeometry>
        </mxCell>
        <mxCell id="6IBB-R6YREifQgIwVvRb-56" style="edgeStyle=orthogonalEdgeStyle;rounded=0;orthogonalLoop=1;jettySize=auto;html=1;" edge="1" parent="WIyWlLk6GJQsqaUBKTNV-1" source="6IBB-R6YREifQgIwVvRb-24" target="6IBB-R6YREifQgIwVvRb-43">
          <mxGeometry relative="1" as="geometry" />
        </mxCell>
        <mxCell id="6IBB-R6YREifQgIwVvRb-24" value="问答4" style="whiteSpace=wrap;html=1;" vertex="1" parent="WIyWlLk6GJQsqaUBKTNV-1">
          <mxGeometry x="30" y="800" width="120" height="60" as="geometry" />
        </mxCell>
        <mxCell id="6IBB-R6YREifQgIwVvRb-52" style="edgeStyle=orthogonalEdgeStyle;rounded=0;orthogonalLoop=1;jettySize=auto;html=1;entryX=0.5;entryY=0;entryDx=0;entryDy=0;" edge="1" parent="WIyWlLk6GJQsqaUBKTNV-1" source="6IBB-R6YREifQgIwVvRb-28" target="6IBB-R6YREifQgIwVvRb-51">
          <mxGeometry relative="1" as="geometry" />
        </mxCell>
        <mxCell id="6IBB-R6YREifQgIwVvRb-28" value="结算总分" style="whiteSpace=wrap;html=1;" vertex="1" parent="WIyWlLk6GJQsqaUBKTNV-1">
          <mxGeometry x="30" y="910" width="120" height="60" as="geometry" />
        </mxCell>
        <mxCell id="6IBB-R6YREifQgIwVvRb-41" style="edgeStyle=orthogonalEdgeStyle;rounded=0;orthogonalLoop=1;jettySize=auto;html=1;" edge="1" parent="WIyWlLk6GJQsqaUBKTNV-1" source="6IBB-R6YREifQgIwVvRb-43" target="6IBB-R6YREifQgIwVvRb-44">
          <mxGeometry relative="1" as="geometry" />
        </mxCell>
        <mxCell id="6IBB-R6YREifQgIwVvRb-42" style="edgeStyle=orthogonalEdgeStyle;rounded=0;orthogonalLoop=1;jettySize=auto;html=1;" edge="1" parent="WIyWlLk6GJQsqaUBKTNV-1" source="6IBB-R6YREifQgIwVvRb-43" target="6IBB-R6YREifQgIwVvRb-45">
          <mxGeometry relative="1" as="geometry" />
        </mxCell>
        <mxCell id="6IBB-R6YREifQgIwVvRb-43" value="是否正确" style="rhombus;whiteSpace=wrap;html=1;" vertex="1" parent="WIyWlLk6GJQsqaUBKTNV-1">
          <mxGeometry x="-160" y="560" width="80" height="80" as="geometry" />
        </mxCell>
        <mxCell id="6IBB-R6YREifQgIwVvRb-44" value="得一分" style="rounded=0;whiteSpace=wrap;html=1;" vertex="1" parent="WIyWlLk6GJQsqaUBKTNV-1">
          <mxGeometry x="-180" y="450" width="120" height="60" as="geometry" />
        </mxCell>
        <mxCell id="6IBB-R6YREifQgIwVvRb-45" value="不得分" style="whiteSpace=wrap;html=1;" vertex="1" parent="WIyWlLk6GJQsqaUBKTNV-1">
          <mxGeometry x="-340" y="570" width="120" height="60" as="geometry" />
        </mxCell>
        <mxCell id="6IBB-R6YREifQgIwVvRb-46" value="是" style="text;html=1;align=center;verticalAlign=middle;whiteSpace=wrap;rounded=0;" vertex="1" parent="WIyWlLk6GJQsqaUBKTNV-1">
          <mxGeometry x="-120" y="520" width="60" height="30" as="geometry" />
        </mxCell>
        <mxCell id="6IBB-R6YREifQgIwVvRb-47" value="否" style="text;html=1;align=center;verticalAlign=middle;whiteSpace=wrap;rounded=0;" vertex="1" parent="WIyWlLk6GJQsqaUBKTNV-1">
          <mxGeometry x="-220" y="570" width="60" height="30" as="geometry" />
        </mxCell>
        <mxCell id="6IBB-R6YREifQgIwVvRb-51" value="结束" style="ellipse;whiteSpace=wrap;html=1;" vertex="1" parent="WIyWlLk6GJQsqaUBKTNV-1">
          <mxGeometry x="30" y="1010" width="120" height="80" as="geometry" />
        </mxCell>
      </root>
    </mxGraphModel>
  </diagram>
</mxfile>
